<?xml version="1.0" encoding="UTF-8" standalone="no"?>
<!-- Generator: Adobe Illustrator 16.0.0, SVG Export Plug-In . SVG Version: 6.00 Build 0)  -->

<svg
   xmlns:dc="http://purl.org/dc/elements/1.1/"
   xmlns:cc="http://creativecommons.org/ns#"
   xmlns:rdf="http://www.w3.org/1999/02/22-rdf-syntax-ns#"
   xmlns:svg="http://www.w3.org/2000/svg"
   xmlns="http://www.w3.org/2000/svg"
   xmlns:sodipodi="http://sodipodi.sourceforge.net/DTD/sodipodi-0.dtd"
   xmlns:inkscape="http://www.inkscape.org/namespaces/inkscape"
   version="1.1"
   id="Layer_1"
   x="0px"
   y="0px"
   width="1960"
   height="768"
   viewBox="0 0 1960 768"
   enable-background="new 0 0 1200 1200"
   xml:space="preserve"
   sodipodi:docname="logo-banner.svg"
   inkscape:version="0.92.2 5c3e80d, 2017-08-06"><metadata
     id="metadata142"><rdf:RDF><cc:Work
         rdf:about=""><dc:format>image/svg+xml</dc:format><dc:type
           rdf:resource="http://purl.org/dc/dcmitype/StillImage" /><dc:title></dc:title></cc:Work></rdf:RDF></metadata><defs
     id="defs140" /><sodipodi:namedview
     pagecolor="#233239"
     bordercolor="#666666"
     borderopacity="1"
     objecttolerance="10"
     gridtolerance="10"
     guidetolerance="10"
     inkscape:pageopacity="1"
     inkscape:pageshadow="2"
     inkscape:window-width="1680"
     inkscape:window-height="938"
     id="namedview138"
     showgrid="false"
     inkscape:zoom="0.60416667"
     inkscape:cx="158.89655"
     inkscape:cy="335.17242"
     inkscape:window-x="0"
     inkscape:window-y="1"
     inkscape:window-maximized="1"
     inkscape:current-layer="Layer_1" /><rect
     id="rect90"
     width="1960"
     height="768"
     x="0"
     y="0"
     style="stroke-width:2.33237457;fill:#233239;fill-opacity:1" /><g
     id="g135"
     transform="matrix(0.44375008,0,0,0.44375008,713.74995,117.74973)"><g
       id="g109"><g
         id="g98"><path
           d="m 661.203,225.076 h 43.424 c 129.43,0 234.736,105.305 234.736,234.739 0,129.436 -105.307,234.743 -234.736,234.743 h -43.424 c -24.284,0 -43.971,-19.691 -43.971,-43.982 0,-24.29 19.687,-43.981 43.971,-43.981 h 43.424 c 80.93,0 146.777,-65.843 146.777,-146.779 0,-80.936 -65.848,-146.783 -146.777,-146.783 h -43.424 c -24.284,0 -43.971,-19.687 -43.971,-43.977 0,-24.29 19.687,-43.98 43.971,-43.98 z"
           id="path96"
           inkscape:connector-curvature="0"
           style="fill:#ffffff" /></g><g
         id="g107"><linearGradient
           id="SVGID_1_"
           gradientUnits="userSpaceOnUse"
           x1="260.63669"
           y1="459.81741"
           x2="582.76862"
           y2="459.81741"><stop
             offset="0"
             style="stop-color:#00AEEF"
             id="stop100" /><stop
             offset="1"
             style="stop-color:#8BD36C"
             id="stop102" /></linearGradient><path
           d="m 538.791,694.559 h -43.417 c -129.431,0 -234.737,-105.308 -234.737,-234.743 0,-129.435 105.307,-234.739 234.737,-234.739 h 43.417 c 24.29,0 43.978,19.689 43.978,43.979 0,24.29 -19.688,43.977 -43.978,43.977 h -43.417 c -80.931,0 -146.778,65.848 -146.778,146.783 0,80.937 65.848,146.779 146.778,146.779 h 43.417 c 24.29,0 43.978,19.691 43.978,43.981 0,24.291 -19.688,43.983 -43.978,43.983 z"
           id="path105"
           inkscape:connector-curvature="0"
           style="fill:url(#SVGID_1_)" /></g></g><g
       id="g133"><path
         d="m 100,907.131 c 0,-45.904 22.081,-67.986 60.626,-67.986 23.437,0 38.738,9.298 46.68,20.919 1.55,2.325 2.131,4.262 2.131,6.392 0,5.618 -4.649,10.267 -10.459,10.267 -2.712,0 -5.424,-1.162 -7.942,-3.874 -7.941,-8.717 -16.27,-13.559 -30.409,-13.559 -25.761,0 -37.383,15.883 -37.383,47.842 0,33.896 11.622,47.648 37.383,47.648 14.333,0 22.081,-3.292 31.378,-12.784 3.1,-3.099 5.617,-4.261 8.329,-4.261 5.811,0 10.46,4.648 10.46,10.459 0,2.325 -0.775,4.262 -1.938,5.812 -9.297,12.396 -27.504,20.919 -48.229,20.919 C 122.081,974.924 100,954.586 100,907.131 Z"
         id="path111"
         inkscape:connector-curvature="0"
         style="fill:#ffffff" /><path
         d="m 266.379,974.73 c -26.148,0 -42.419,-14.915 -42.419,-46.487 0,-31.765 16.271,-46.68 42.419,-46.68 26.148,0 42.418,14.915 42.418,46.68 0,31.572 -16.27,46.487 -42.418,46.487 z m 0,-75.346 c -13.946,0 -21.307,9.685 -21.307,28.859 0,18.982 7.36,28.667 21.307,28.667 13.945,0 21.306,-9.685 21.306,-28.667 0,-19.175 -7.361,-28.859 -21.306,-28.859 z"
         id="path113"
         inkscape:connector-curvature="0"
         style="fill:#ffffff" /><path
         d="m 403.314,915.267 v 48.423 c 0,5.811 -4.648,10.072 -10.46,10.072 -6.198,0 -10.46,-4.262 -10.46,-10.072 v -44.549 c 0,-11.041 -4.454,-18.595 -17.045,-18.595 -14.526,0 -19.369,8.522 -19.369,19.95 v 43.193 c 0,5.811 -4.455,10.072 -10.459,10.072 -6.004,0 -10.459,-4.262 -10.459,-10.072 v -70.504 c 0,-5.812 4.648,-10.46 10.459,-10.46 5.811,0 10.459,4.648 10.459,10.46 3.681,-5.617 11.816,-11.622 24.793,-11.622 26.342,0 32.541,16.853 32.541,33.704 z"
         id="path115"
         inkscape:connector-curvature="0"
         style="fill:#ffffff" /><path
         d="m 429.459,868.005 c 0,-5.616 4.648,-10.266 10.266,-10.266 5.618,0 10.266,4.649 10.266,10.266 v 16.271 h 8.716 c 4.843,0 8.716,3.874 8.716,8.717 0,4.842 -3.873,8.716 -8.716,8.716 h -8.716 v 46.873 c 0,4.455 3.873,6.973 7.359,6.973 5.037,0 9.104,4.068 9.104,9.104 0,5.036 -4.067,9.104 -9.104,9.104 -17.238,0 -27.891,-11.04 -27.891,-26.343 v -45.711 h -4.455 c -4.843,0 -8.717,-3.874 -8.717,-8.716 0,-4.843 3.874,-8.717 8.717,-8.717 h 4.455 z"
         id="path117"
         inkscape:connector-curvature="0"
         style="fill:#ffffff" /><path
         d="m 520.88,881.563 c 32.733,0 38.739,25.181 38.739,38.545 0,7.167 0,15.496 -11.816,15.496 h -47.842 c 0,13.945 9.879,20.337 22.662,20.337 8.522,0 14.527,-2.905 19.176,-6.004 2.131,-1.356 3.68,-2.131 6.197,-2.131 5.037,0 9.104,4.067 9.104,9.104 0,3.1 -1.55,5.617 -3.293,7.167 -3.293,3.099 -13.559,10.653 -31.185,10.653 -26.924,0 -43.58,-14.527 -43.58,-46.874 0.001,-29.634 15.495,-46.293 41.838,-46.293 z m -20.338,36.609 h 38.351 c 0,-9.491 -5.423,-18.788 -18.013,-18.788 -11.234,0 -19.37,6.391 -20.338,18.788 z"
         id="path119"
         inkscape:connector-curvature="0"
         style="fill:#ffffff" /><path
         d="m 653.361,915.267 v 48.423 c 0,5.811 -4.648,10.072 -10.459,10.072 -6.198,0 -10.459,-4.262 -10.459,-10.072 v -44.549 c 0,-11.041 -4.455,-18.595 -17.045,-18.595 -14.527,0 -19.369,8.522 -19.369,19.95 v 43.193 c 0,5.811 -4.455,10.072 -10.459,10.072 -6.006,0 -10.461,-4.262 -10.461,-10.072 v -70.504 c 0,-5.812 4.649,-10.46 10.461,-10.46 5.811,0 10.459,4.648 10.459,10.46 3.68,-5.617 11.814,-11.622 24.793,-11.622 26.342,0 32.539,16.853 32.539,33.704 z"
         id="path121"
         inkscape:connector-curvature="0"
         style="fill:#ffffff" /><path
         d="m 679.506,868.005 c 0,-5.616 4.648,-10.266 10.266,-10.266 5.618,0 10.266,4.649 10.266,10.266 v 16.271 h 8.717 c 4.842,0 8.716,3.874 8.716,8.717 0,4.842 -3.874,8.716 -8.716,8.716 h -8.717 v 46.873 c 0,4.455 3.875,6.973 7.36,6.973 5.036,0 9.104,4.068 9.104,9.104 0,5.036 -4.068,9.104 -9.104,9.104 -17.238,0 -27.892,-11.04 -27.892,-26.343 v -45.711 h -4.455 c -4.842,0 -8.716,-3.874 -8.716,-8.716 0,-4.843 3.874,-8.717 8.716,-8.717 h 4.455 z"
         id="path123"
         inkscape:connector-curvature="0"
         style="fill:#ffffff" /><path
         d="m 729.865,907.131 c 0,-45.904 22.08,-67.986 60.625,-67.986 23.438,0 38.738,9.298 46.68,20.919 1.551,2.325 2.131,4.262 2.131,6.392 0,5.618 -4.648,10.267 -10.459,10.267 -2.712,0 -5.424,-1.162 -7.941,-3.874 -7.941,-8.717 -16.27,-13.559 -30.41,-13.559 -25.761,0 -37.383,15.883 -37.383,47.842 0,33.896 11.622,47.648 37.383,47.648 14.334,0 22.082,-3.292 31.379,-12.784 3.099,-3.099 5.617,-4.261 8.328,-4.261 5.811,0 10.46,4.648 10.46,10.459 0,2.325 -0.774,4.262 -1.937,5.812 -9.298,12.396 -27.505,20.919 -48.23,20.919 -38.546,-10e-4 -60.626,-20.339 -60.626,-67.794 z"
         id="path125"
         inkscape:connector-curvature="0"
         style="fill:#ffffff" /><path
         d="m 878.811,893.186 c 3.681,-5.617 11.816,-11.622 24.793,-11.622 26.342,0 32.54,16.853 32.54,33.703 v 48.423 c 0,5.811 -4.647,10.072 -10.459,10.072 -6.198,0 -10.46,-4.262 -10.46,-10.072 v -44.549 c 0,-11.041 -4.455,-18.595 -17.045,-18.595 -14.526,0 -19.369,8.522 -19.369,19.95 v 43.193 c 0,5.811 -4.455,10.072 -10.459,10.072 -6.005,0 -10.46,-4.262 -10.46,-10.072 V 844.763 c 0,-5.811 4.649,-10.46 10.46,-10.46 5.811,0 10.459,4.649 10.459,10.46 z"
         id="path127"
         inkscape:connector-curvature="0"
         style="fill:#ffffff" /><path
         d="m 993.473,881.563 c 32.734,0 38.739,25.181 38.739,38.545 0,7.167 0,15.496 -11.815,15.496 h -47.842 c 0,13.945 9.878,20.337 22.662,20.337 8.522,0 14.526,-2.905 19.175,-6.004 2.131,-1.356 3.681,-2.131 6.198,-2.131 5.036,0 9.104,4.067 9.104,9.104 0,3.1 -1.549,5.617 -3.293,7.167 -3.293,3.099 -13.559,10.653 -31.184,10.653 -26.924,0 -43.581,-14.527 -43.581,-46.874 0,-29.634 15.495,-46.293 41.837,-46.293 z m -20.338,36.609 h 38.352 c 0,-9.491 -5.423,-18.788 -18.014,-18.788 -11.235,0 -19.369,6.391 -20.338,18.788 z"
         id="path129"
         inkscape:connector-curvature="0"
         style="fill:#ffffff" /><path
         d="m 1049.834,901.708 c -4.843,0 -8.717,-3.874 -8.717,-8.716 0,-4.843 3.874,-8.717 8.717,-8.717 h 4.066 v -10.46 c 0,-18.013 12.01,-34.283 36.996,-34.283 5.036,0 9.104,4.068 9.104,9.104 0,5.036 -4.067,9.103 -9.104,9.103 -10.653,0 -16.076,6.005 -16.076,14.527 v 12.009 h 12.978 c 4.842,0 8.716,3.874 8.716,8.717 0,4.842 -3.874,8.716 -8.716,8.716 h -12.978 v 61.981 c 0,5.811 -4.649,10.072 -10.46,10.072 -6.198,0 -10.46,-4.262 -10.46,-10.072 v -61.981 z"
         id="path131"
         inkscape:connector-curvature="0"
         style="fill:#ffffff" /></g></g></svg>