<?xml version="1.0" encoding="UTF-8"?>
<svg width="437px" height="279px" viewBox="0 0 437 279" version="1.1" xmlns="http://www.w3.org/2000/svg" xmlns:xlink="http://www.w3.org/1999/xlink">
    <!-- Generator: Sketch 53 (72520) - https://sketchapp.com -->
    <title>Logo Museo Vertical</title>
    <desc>Created with Sketch.</desc>
    <defs>
        <linearGradient x1="26.4604666%" y1="73.038737%" x2="73.5395334%" y2="33.1054688%" id="linearGradient-1">
            <stop stop-color="#00AEEF" offset="0%"></stop>
            <stop stop-color="#47CEFF" offset="100%"></stop>
        </linearGradient>
        <linearGradient x1="26.4606186%" y1="73.038737%" x2="73.5393814%" y2="33.1054688%" id="linearGradient-2">
            <stop stop-color="#00AEEF" offset="0%"></stop>
            <stop stop-color="#47CEFF" offset="100%"></stop>
        </linearGradient>
    </defs>
    <g id="Logos" stroke="none" stroke-width="1" fill="none" fill-rule="evenodd">
        <g id="Logo-Museo-Vertical" transform="translate(-2.000000, -46.000000)">
            <text id="ContentChef" font-family="MuseoSans-700, Museo Sans" font-size="72" font-weight="500" fill="#233239">
                <tspan x="0" y="324">ContentChef</tspan>
            </text>
            <g id="Group-12" transform="translate(92.000000, 0.000000)">
                <g id="Logo" transform="translate(10.000000, 46.000000)">
                    <path d="M139.160747,0.839253333 L154.17408,0.839253333 C198.923947,0.839253333 235.333333,37.2475733 235.333333,81.99936 C235.333333,126.751147 198.923947,163.160747 154.17408,163.160747 L139.160747,163.160747 C130.764587,163.160747 123.95776,156.352 123.95776,147.953707 C123.95776,139.55584 130.764373,132.747093 139.160747,132.747093 L154.17408,132.747093 C182.155307,132.747093 204.922027,109.982933 204.922027,81.9991467 C204.922027,54.0157867 182.155307,31.2494933 154.17408,31.2494933 L139.160747,31.2494933 C130.764587,31.2494933 123.95776,24.4430933 123.95776,16.0448 C123.957973,7.64672 130.764587,0.839253333 139.160747,0.839253333 Z" id="path886" fill="url(#linearGradient-1)"></path>
                    <path d="M96.8375467,163.160747 L81.8261333,163.160747 C37.0760533,163.160747 0.666666667,126.750933 0.666666667,81.9991467 C0.666666667,37.24736 37.0760533,0.83904 81.8261333,0.83904 L96.8375467,0.83904 C105.235413,0.83904 112.042027,7.64650667 112.042027,16.0445867 C112.042027,24.44288 105.235413,31.24928 96.8375467,31.24928 L81.8261333,31.24928 C53.84448,31.24928 31.0784,54.0155733 31.0784,81.9989333 C31.0784,109.98272 53.84448,132.74688 81.8261333,132.74688 L96.8375467,132.74688 C105.235413,132.74688 112.042027,139.555627 112.042027,147.953493 C112.042027,156.352 105.235413,163.160747 96.8375467,163.160747 Z" id="path890" fill="url(#linearGradient-2)"></path>
                </g>
            </g>
        </g>
    </g>
</svg>