<svg xmlns="http://www.w3.org/2000/svg" width="250.208" height="50.297" viewBox="0 0 250.208 50.297">
  <g id="Group_959" data-name="Group 959" transform="translate(106.488 -7777)">
    <path id="Path_8121" data-name="Path 8121" d="M12.448.256A11.027,11.027,0,0,1,6.816-1.136a9.17,9.17,0,0,1-3.68-4,13.838,13.838,0,0,1-1.28-6.16,13.76,13.76,0,0,1,1.28-6.128,9.17,9.17,0,0,1,3.68-4,11.027,11.027,0,0,1,5.632-1.392,12.1,12.1,0,0,1,4,.656,9.716,9.716,0,0,1,3.3,1.9,1.548,1.548,0,0,1,.608,1.28,1.513,1.513,0,0,1-.32.976.956.956,0,0,1-.768.4,1.661,1.661,0,0,1-1.056-.416,11.33,11.33,0,0,0-2.8-1.616,8.272,8.272,0,0,0-2.864-.464,6.634,6.634,0,0,0-5.408,2.272Q5.248-15.552,5.248-11.3q0,4.288,1.888,6.56a6.634,6.634,0,0,0,5.408,2.272,7.831,7.831,0,0,0,2.8-.48,13.563,13.563,0,0,0,2.864-1.6,2.1,2.1,0,0,1,1.056-.416.956.956,0,0,1,.768.4,1.513,1.513,0,0,1,.32.976,1.548,1.548,0,0,1-.608,1.28,9.716,9.716,0,0,1-3.3,1.9A12.1,12.1,0,0,1,12.448.256ZM30.368.224A8.045,8.045,0,0,1,26.32-.768,6.694,6.694,0,0,1,23.632-3.6a9.234,9.234,0,0,1-.944-4.272,9.308,9.308,0,0,1,.944-4.3,6.694,6.694,0,0,1,2.688-2.832A8.045,8.045,0,0,1,30.368-16a8.045,8.045,0,0,1,4.048.992A6.694,6.694,0,0,1,37.1-12.176a9.308,9.308,0,0,1,.944,4.3A9.234,9.234,0,0,1,37.1-3.6,6.694,6.694,0,0,1,34.416-.768,8.045,8.045,0,0,1,30.368.224Zm0-2.56a3.969,3.969,0,0,0,3.28-1.408,6.454,6.454,0,0,0,1.136-4.128,6.4,6.4,0,0,0-1.152-4.112,3.959,3.959,0,0,0-3.264-1.424A3.959,3.959,0,0,0,27.1-11.984a6.4,6.4,0,0,0-1.152,4.112,6.454,6.454,0,0,0,1.136,4.128A3.969,3.969,0,0,0,30.368-2.336ZM50.048-16q5.6,0,5.6,6.3v8.32A1.471,1.471,0,0,1,55.216-.24a1.7,1.7,0,0,1-1.2.4,1.613,1.613,0,0,1-1.168-.416,1.482,1.482,0,0,1-.432-1.12v-8.16a4.461,4.461,0,0,0-.784-2.912,3.029,3.029,0,0,0-2.448-.928,4.178,4.178,0,0,0-3.136,1.216A4.478,4.478,0,0,0,44.864-8.9v7.52a1.482,1.482,0,0,1-.432,1.12A1.613,1.613,0,0,1,43.264.16,1.671,1.671,0,0,1,42.08-.256a1.454,1.454,0,0,1-.448-1.12V-14.4a1.442,1.442,0,0,1,.464-1.1,1.647,1.647,0,0,1,1.168-.432,1.513,1.513,0,0,1,1.12.416,1.471,1.471,0,0,1,.416,1.088v1.312a5.192,5.192,0,0,1,2.144-2.144A6.477,6.477,0,0,1,50.048-16ZM67.712-2.3a1.605,1.605,0,0,1,1.008.368,1.146,1.146,0,0,1,.3.848,1.106,1.106,0,0,1-.5.976A2.316,2.316,0,0,1,67.072.16L66.208.1a5.6,5.6,0,0,1-3.872-1.584A5.881,5.881,0,0,1,61.056-5.6v-7.52h-1.92q-1.408,0-1.408-1.248a1.174,1.174,0,0,1,.368-.912,1.487,1.487,0,0,1,1.04-.336h1.92v-3.3a1.524,1.524,0,0,1,.432-1.152,1.613,1.613,0,0,1,1.168-.416,1.671,1.671,0,0,1,1.184.416,1.5,1.5,0,0,1,.448,1.152v3.3h3.168a1.487,1.487,0,0,1,1.04.336,1.174,1.174,0,0,1,.368.912,1.163,1.163,0,0,1-.368.928,1.536,1.536,0,0,1-1.04.32H64.288v7.744a3.268,3.268,0,0,0,.624,2.208,2.7,2.7,0,0,0,1.9.8ZM83.584-3.936a.909.909,0,0,1,.736.352,1.369,1.369,0,0,1,.288.9A1.84,1.84,0,0,1,83.456-1.12a10.151,10.151,0,0,1-2.448.992,9.926,9.926,0,0,1-2.544.352,7.88,7.88,0,0,1-5.856-2.16,8.012,8.012,0,0,1-2.144-5.9,9.26,9.26,0,0,1,.944-4.256,6.94,6.94,0,0,1,2.656-2.88A7.427,7.427,0,0,1,77.952-16a6.354,6.354,0,0,1,4.96,2.016,7.8,7.8,0,0,1,1.824,5.44q0,1.28-1.152,1.28H73.7q.32,4.96,4.768,4.96a5.9,5.9,0,0,0,2.048-.32,14.894,14.894,0,0,0,1.824-.832q.1-.064.528-.272A1.747,1.747,0,0,1,83.584-3.936Zm-5.568-9.7a3.9,3.9,0,0,0-2.976,1.184A5.529,5.529,0,0,0,73.7-9.12h8.256a5.348,5.348,0,0,0-1.1-3.344A3.54,3.54,0,0,0,78.016-13.632ZM96.7-16q5.6,0,5.6,6.3v8.32a1.471,1.471,0,0,1-.432,1.136,1.7,1.7,0,0,1-1.2.4A1.613,1.613,0,0,1,99.5-.256a1.482,1.482,0,0,1-.432-1.12v-8.16a4.461,4.461,0,0,0-.784-2.912,3.029,3.029,0,0,0-2.448-.928A4.178,4.178,0,0,0,92.7-12.16,4.478,4.478,0,0,0,91.52-8.9v7.52a1.482,1.482,0,0,1-.432,1.12A1.613,1.613,0,0,1,89.92.16a1.671,1.671,0,0,1-1.184-.416,1.454,1.454,0,0,1-.448-1.12V-14.4a1.442,1.442,0,0,1,.464-1.1,1.647,1.647,0,0,1,1.168-.432,1.513,1.513,0,0,1,1.12.416,1.471,1.471,0,0,1,.416,1.088v1.312A5.192,5.192,0,0,1,93.6-15.264,6.477,6.477,0,0,1,96.7-16ZM114.368-2.3a1.605,1.605,0,0,1,1.008.368,1.146,1.146,0,0,1,.3.848,1.106,1.106,0,0,1-.5.976,2.316,2.316,0,0,1-1.456.272L112.864.1a5.6,5.6,0,0,1-3.872-1.584,5.881,5.881,0,0,1-1.28-4.112v-7.52h-1.92q-1.408,0-1.408-1.248a1.174,1.174,0,0,1,.368-.912,1.487,1.487,0,0,1,1.04-.336h1.92v-3.3a1.524,1.524,0,0,1,.432-1.152,1.613,1.613,0,0,1,1.168-.416,1.671,1.671,0,0,1,1.184.416,1.5,1.5,0,0,1,.448,1.152v3.3h3.168a1.487,1.487,0,0,1,1.04.336,1.174,1.174,0,0,1,.368.912,1.163,1.163,0,0,1-.368.928,1.536,1.536,0,0,1-1.04.32h-3.168v7.744a3.268,3.268,0,0,0,.624,2.208,2.7,2.7,0,0,0,1.9.8Z" transform="translate(-43 7809.371)" fill="#040a2f"/>
    <path id="Path_8122" data-name="Path 8122" d="M12.608.288A11.655,11.655,0,0,1,6.784-1.12a9.475,9.475,0,0,1-3.84-4.032A13.306,13.306,0,0,1,1.6-11.3a13.208,13.208,0,0,1,1.344-6.128,9.5,9.5,0,0,1,3.84-4.016,11.655,11.655,0,0,1,5.824-1.408,11.629,11.629,0,0,1,7.232,2.3,2.409,2.409,0,0,1,.672.768,2.137,2.137,0,0,1,.192.96,2.238,2.238,0,0,1-.464,1.424A1.4,1.4,0,0,1,19.1-16.8a2.482,2.482,0,0,1-.784-.112,3.069,3.069,0,0,1-.752-.4,10.758,10.758,0,0,0-2.368-1.2,7.244,7.244,0,0,0-2.336-.368,5.615,5.615,0,0,0-4.624,1.9A8.842,8.842,0,0,0,6.688-11.3q0,7.616,6.176,7.616a6.758,6.758,0,0,0,2.24-.368,14.183,14.183,0,0,0,2.464-1.2,4.6,4.6,0,0,1,.8-.4A2.224,2.224,0,0,1,19.1-5.76a1.4,1.4,0,0,1,1.136.592A2.238,2.238,0,0,1,20.7-3.744a2.1,2.1,0,0,1-.208.976,2.362,2.362,0,0,1-.656.752A11.629,11.629,0,0,1,12.608.288ZM33.5-16.1q5.472,0,5.472,6.624V-2.08A2.157,2.157,0,0,1,38.32-.416a2.51,2.51,0,0,1-1.776.608,2.451,2.451,0,0,1-1.76-.608,2.186,2.186,0,0,1-.64-1.664V-9.536a3.151,3.151,0,0,0-.592-2.1,2.3,2.3,0,0,0-1.84-.688,3.177,3.177,0,0,0-2.416.96,3.563,3.563,0,0,0-.912,2.56v6.72a2.186,2.186,0,0,1-.64,1.664,2.451,2.451,0,0,1-1.76.608,2.51,2.51,0,0,1-1.776-.608,2.157,2.157,0,0,1-.656-1.664V-20.512a2.032,2.032,0,0,1,.688-1.6,2.63,2.63,0,0,1,1.808-.608,2.439,2.439,0,0,1,1.7.576,1.965,1.965,0,0,1,.64,1.536v6.976a5.334,5.334,0,0,1,2.144-1.84A6.846,6.846,0,0,1,33.5-16.1ZM55.2-4.672a1.259,1.259,0,0,1,1.04.512,2.068,2.068,0,0,1,.4,1.312,1.74,1.74,0,0,1-.32,1.008,2.59,2.59,0,0,1-.9.784A11.464,11.464,0,0,1,52.9-.112,10.785,10.785,0,0,1,50.24.256a9.533,9.533,0,0,1-4.464-.992,6.946,6.946,0,0,1-2.928-2.832A8.776,8.776,0,0,1,41.824-7.9a8.89,8.89,0,0,1,.992-4.256,7.272,7.272,0,0,1,2.752-2.9,7.713,7.713,0,0,1,4-1.04,7.318,7.318,0,0,1,3.76.944,6.445,6.445,0,0,1,2.512,2.688,8.813,8.813,0,0,1,.9,4.08A1.538,1.538,0,0,1,56.4-7.312a1.214,1.214,0,0,1-.944.368H46.5a4.266,4.266,0,0,0,1.152,2.736A3.8,3.8,0,0,0,50.3-3.36a5.711,5.711,0,0,0,1.664-.224A16.076,16.076,0,0,0,53.6-4.192q.448-.192.864-.336A2.289,2.289,0,0,1,55.2-4.672Zm-5.5-8.1a2.9,2.9,0,0,0-2.208.88A4.176,4.176,0,0,0,46.5-9.344h6.176a4.177,4.177,0,0,0-.848-2.56A2.67,2.67,0,0,0,49.7-12.768ZM68.032-19.04a2.562,2.562,0,0,0-1.888.8,3.054,3.054,0,0,0-.576,1.984v.544h2.24q2.176,0,2.176,1.824,0,1.792-2.176,1.792h-2.24v9.984a2.086,2.086,0,0,1-.688,1.7A2.576,2.576,0,0,1,63.168.16a2.624,2.624,0,0,1-1.744-.576,2.086,2.086,0,0,1-.688-1.7V-12.1h-1.28q-2.144,0-2.144-1.792,0-1.824,2.144-1.824h1.28a6.672,6.672,0,0,1,1.7-4.832A6.949,6.949,0,0,1,67.1-22.528l.832-.064.576-.032q2.208,0,2.208,1.7,0,1.664-1.856,1.824Z" transform="translate(73 7809.371)" fill="#2ddfff"/>
    <g id="Group_320" data-name="Group 320" transform="translate(-106.488 7777)">
      <g id="Group_319" data-name="Group 319" transform="translate(22.123 9.598)">
        <path id="Rectangle_1012" data-name="Rectangle 1012" d="M0,0H12.057a0,0,0,0,1,0,0V19.607a6.028,6.028,0,0,1-6.028,6.028h0A6.028,6.028,0,0,1,0,19.607V0A0,0,0,0,1,0,0Z" transform="translate(31.039 18.127) rotate(135)" fill="#27bdd8"/>
        <path id="Rectangle_1011" data-name="Rectangle 1011" d="M0,0H12.057a0,0,0,0,1,0,0V25.81a6.028,6.028,0,0,1-6.028,6.028h0A6.028,6.028,0,0,1,0,25.81V0A0,0,0,0,1,0,0Z" transform="translate(22.513 9.66) rotate(45)" fill="#2ddfff"/>
        <path id="Path_4980" data-name="Path 4980" d="M16314.922-1653.2l-8.436,8.5-.83-.829Z" transform="translate(-16292.448 1662.86)" opacity="0.333"/>
      </g>
      <g id="Group_316" data-name="Group 316" transform="translate(0 0)">
        <path id="Rectangle_1013" data-name="Rectangle 1013" d="M0,0H12.057a0,0,0,0,1,0,0V19.607a6.028,6.028,0,0,1-6.028,6.028h0A6.028,6.028,0,0,1,0,19.607V0A0,0,0,0,1,0,0Z" transform="translate(0 22.572) rotate(-45)" fill="#025186"/>
        <path id="Rectangle_1014" data-name="Rectangle 1014" d="M0,0H12.057a0,0,0,0,1,0,0V25.81a6.028,6.028,0,0,1-6.028,6.028h0A6.028,6.028,0,0,1,0,25.81V0A0,0,0,0,1,0,0Z" transform="translate(8.525 31.039) rotate(-135)" fill="#0058ff"/>
        <path id="Path_4981" data-name="Path 4981" d="M16305.656-1644.7l8.438-8.5.828.829Z" transform="translate(-16297.014 1675.736)" opacity="0.333"/>
      </g>
    </g>
  </g>
</svg>